<?xml version="1.0" standalone="yes"?>
<svg xmlns="http://www.w3.org/2000/svg" width="160" height="160">
<path style="fill:#010101; stroke:none;" d="M0 0L0 160L160 160L160 0L0 0z"/>
<path style="fill:#feb0b0; stroke:none;" d="M61 45C50.5481 39.4551 48.2324 37.3528 36 39C38.4144 34.5146 42.1964 34.1029 47 34L51 22C34.4037 23.449 11.9399 38.4207 8 55C10.5918 57.9664 10.9263 61.6909 13.0054 64.9815C15.9554 69.6504 28.6999 74.2557 28.7037 64.956C28.7057 60.1045 23.1646 57.6438 22.5802 53.0046C22.2188 50.1356 24.0459 48.6332 26 47L32.3773 65.9992L23.0285 77.1042L23 90C15.0918 83.0453 19.4933 68.8944 7 65C3.37225 73.8903 0.14942 85.8923 8.39043 93.6713C21.0046 105.578 40.9368 95.181 37 78C42.047 77.7768 46.8938 79.5815 52 78.7863C63.5675 76.9848 71.952 66.3784 69 56L65 56C70.7251 48.7557 77.4229 36.4229 67 30L67 28C73.5317 28.2806 73.2277 33.6467 77.5486 37.0123C80.9404 39.6543 85.3617 39.2572 88.1026 43.1883C91.0912 47.4745 88.8831 51.7799 84 52C87.3964 45.8574 81.2019 38.0786 75.7415 44.4336C71.0607 49.8813 73.2025 62.1136 81.0039 62.8873C91.1765 63.8963 94.606 52.3603 104 51.4228C111.263 50.698 117.229 58.6059 123.956 57.5741C127.717 56.9973 128.918 53.0843 130 50C137.042 56.0998 124.092 61.2446 124 69C119.205 66.3903 118.344 60.5304 112.985 58.2284C100.22 52.7443 91.244 63.2463 96 75C89.0064 75.6484 68.7432 63.635 66.1327 79.0154C65.4597 82.9805 69.0384 86.8605 69 91C64.2922 87.889 59.8909 83.1978 54 82.5625C43.4046 81.4199 37.123 95.1457 38.186 104C39.0444 111.151 45.1195 114.705 47 121C52.1417 121.221 58.0534 123.21 62.9992 121.062C69.2285 118.357 75.1156 106.96 64.9846 105.233C59.4216 104.285 56.1123 108.062 52 111L51 110C54.7047 102.8 54.6567 101.631 54 94C62.577 99.2873 80.0051 107.478 84.3287 92C85.2348 88.7564 83.8914 85.3014 84 82C88.7726 84.7772 89.7167 90.9054 95.0154 92.9761C106.491 97.4606 111 83.4065 109 75L110 74C116.415 79.3431 109.965 87.4275 115.573 92.2569C119.373 95.5299 123.933 92.231 128 91.6188C136.155 90.3913 142.686 97.1663 142 105L140 105C132.419 85.5054 123.547 102.975 113 108C114.097 105.193 116.744 101.4 114.953 98.3943C111.629 92.8173 98.8758 95.7749 96.7855 101.214C95.3785 104.875 98.3852 108.914 100 112L99 113C95.165 110.144 93.4346 102.239 89.581 100.647C76.9701 95.4363 77.078 114.99 78 121C85.7353 120.182 93.3293 121.732 101 119.869C107.687 118.245 113.332 113.378 120 112.229C128.226 110.812 136.354 118.028 144.999 115.346C163.691 109.548 156.779 79.3568 151 67C144.587 71.3016 138.123 83.6111 150 84C145.804 90.9897 141.767 83.1728 136.91 81.7724C132.08 80.3792 127.941 81.3056 123 79L123 78C127.706 76.6294 132.368 78.8875 136.996 76.5432C150.444 69.7319 147.527 53.5061 142 43L122 41L131 36C129.204 32.159 122.409 23.235 118 28C113.043 26.5348 95.1737 27.5282 104.434 36.3472C107.153 38.9359 111.525 39.1416 115 40L115 42L98 44C97.9902 31.3488 89.7109 34.5721 85 26L111 23C99.5333 13.8367 80.3625 20 67 20C61.1894 20 54.3062 19.4795 51.7423 26.0154C48.3544 34.6517 58.5873 37.9233 61 45z"/>
<path style="fill:#ed6e6d; stroke:none;" d="M47 34C42.237 34.04 37.6554 33.8905 36 39L50 38.2785L61 45C58.6654 33.4625 47.1757 34.1935 55 21C48.2516 22.1341 47.0545 27.9796 47 34z"/>
<path style="fill:#ffdfe0; stroke:none;" d="M111 22L112 23L111 22z"/>
<path style="fill:#ed6e6d; stroke:none;" d="M85 26C87.7707 34.3764 97.9575 31.964 98 44L115 42L115 40C111.75 38.963 107.922 38.6457 105.232 36.3472C95.4752 28.0101 113.068 26.8258 118 28L119 25L85 26M67 28L67 30C76.4686 38.5698 70.1105 47.0183 65 56L69 56C70.7993 66.3371 62.531 77.0416 51 78.7855C46.2482 79.5041 41.7302 77.5693 37 78C38.0873 84.706 33.2798 98.5192 24.9992 98.8858C19.9638 99.1087 16.2693 95.2852 11 96L11 98C16.4919 101.701 23.736 103.018 28.7901 106.738C36.1646 112.166 37.2959 119.741 48 120C44.7535 115.372 40.4021 111.611 38.7894 106C36.3312 97.4475 42.861 82.8054 53 82.8086C59.1793 82.8106 63.696 88.6366 69 91C69.7344 86.5437 65.9235 83.5396 66.3804 79.4282C68.1325 63.6626 89.875 76.3663 96 75C92.9648 64.0399 100.195 52.1194 112.985 58.6883C117.918 61.2214 118.94 67.3423 124 69C124.228 62.0273 138.92 54.9392 130 50C128.538 52.9291 126.894 57.2364 122.985 57.2639C116.901 57.3067 111.589 51.1757 105 51.1867C96.2696 51.2013 82.5293 71.7031 75.1759 58.892C66.8014 44.3018 89.887 38.0474 84 52C89.242 52.7835 91.2952 47.6456 88.6813 43.1883C86.2417 39.0281 81.8012 39.4587 78.2994 37.0123C73.6102 33.7364 74.1492 26.9814 67 28z"/>
<path style="fill:#ffdfe0; stroke:none;" d="M130 36L131 37L130 36z"/>
<path style="fill:#ed6e6d; stroke:none;" d="M122 41L140 45C140.127 36.5622 124.858 32.8708 122 41z"/>
<path style="fill:#ffdfe0; stroke:none;" d="M141 45L142 46L141 45z"/>
<path style="fill:#ed6e6d; stroke:none;" d="M8 55C8.00115 65.4424 13.9509 67.3708 17.3981 76.0895C19.4518 81.2834 17.4115 86.7464 23 90L23.0424 78.0432L32.6775 65.9992L26 47C15.6962 52.6825 29.8423 59.229 28.2485 65.892C26.3688 73.7498 16.5111 68.956 13.652 64.9815C11.3133 61.7303 11.2187 57.4389 8 55M38 48C44.7021 56.4189 45.2741 58.544 44 69L60 59L60 57C56.8295 56.2865 53.0303 56.9969 50.2091 55.1273C45.4503 51.9736 44.6812 46.5278 38 48z"/>
<path style="fill:#ffdfe0; stroke:none;" d="M147 59L148 60L147 59z"/>
<path style="fill:#ed6e6d; stroke:none;" d="M148 59C143.38 65.3435 143.608 73.6122 135 76.9869C130.956 78.5723 127.035 76.5297 123 78L123 79C127.796 81.938 132.131 80.4349 136.91 82.3086C141.104 83.9527 147.241 91.8195 150 84C135.53 82.8985 153.691 67.3433 148 59z"/>
<path style="fill:#b65656; stroke:none;" d="M149 67L150 68L149 67z"/>
<path style="fill:#ed6e6d; stroke:none;" d="M110 74L109 75C110.431 82.7339 106.001 97.6155 95.0154 92.5031C89.8656 90.1066 89.2998 84.021 84 82C83.4169 85.3433 85.034 88.7496 83.9367 92C78.574 107.886 63.2858 97.905 54 94L51 110L52 111C55.67 109.227 58.6598 105.327 63 105.242C74.2185 105.024 69.1181 115.981 64 120L64 121L79 120C75.8463 113.718 78.0083 98.0805 88.7755 100.817C93.3036 101.968 94.1076 110.588 99 113L100 112C98.9418 109.086 96.1502 105.311 96.956 102.105C98.4269 96.2538 110.692 93.3315 114.339 98.3951C116.353 101.192 113.715 105.109 113 108C119.75 106.064 129.361 88.0561 136.924 99.1049C138.151 100.896 138.974 103.088 140 105L142 105C146.307 84.2539 121.61 97.6973 115.576 91.5625C110.39 86.2893 117.437 78.1011 110 74M121.667 111.333L122.333 111.667L121.667 111.333M118 112L119 113L118 112z"/>
<path style="fill:#b65656; stroke:none;" d="M111 116C116.468 122.379 128.707 126.791 137 125L137 123L120 116C125.958 116.127 137.19 121.854 141 116C129.439 115.904 122.082 109.701 111 116z"/>
<path style="fill:#ed6e6d; stroke:none;" d="M125 112L126 113L125 112M115 113L116 114L115 113M127 113L128 114L127 113M113 114L114 115L113 114M129.667 114.333L130.333 114.667L129.667 114.333M133 115L133 116L138 116L133 115M106 118L106 120C113.815 124.112 128.953 135.037 136 126L106 118M120 116C123.353 121.799 132.115 121.839 138 124L140 119L120 116M96 121C101.833 128.433 118.492 136.376 128 134L128 133L109 124.75L104 120L96 121z"/>
<path style="fill:#b65656; stroke:none;" d="M102 121C107.301 124.496 126.049 136.781 131 130C123.77 128.327 108.072 117.318 102 121z"/>
<path style="fill:#ed6e6d; stroke:none;" d="M81 120L81 121L85 121L81 120z"/>
<path style="fill:#b65656; stroke:none;" d="M80 121L86 126C87.5232 123.335 88.9268 122.392 92.0046 123.912C103.559 129.618 110.497 136 124 136C120.376 132.834 115.338 132.246 111 130.218C99.385 124.788 93.0483 121 80 121z"/>
<path style="fill:#ffdfe0; stroke:none;" d="M80 122L81 123L80 122z"/>
<path style="fill:#ed6e6d; stroke:none;" d="M118 137C110.544 133.322 102.974 130.643 96 125.86C93.8602 124.393 90.2984 121.314 87.5332 123.082C82.9173 126.033 89.7223 130.08 92.0008 131.24C100.049 135.338 109.023 136.815 118 137M81 123L82 124L81 123z"/>
<path style="fill:#feb0b0; stroke:none;" d="M82 124L83 125L82 124M136 125L137 126L136 125z"/>
</svg>
